PathFileType	4	(X/Y/Z)	62_1_16_p1_0-374.trc
DataRate	CameraRate	NumFrames	NumMarkers	Units	OrigDataRate	OrigDataStartFrame	OrigNumFrames
59.0	59.0	6	27	m	59.0	328	375
Frame#	Time	RHip			RKnee			RAnkle			RBigToe			RSmallToe			RHeel			LHip			LKnee			LAnkle			LBigToe			LSmallToe			LHeel			Neck			Head			Nose			RShoulder			RElbow			RWrist			RThumb			RIndex			RPinky			LShoulder			LElbow			LWrist			LThumb			LIndex			LPinky			
		X1	Y1	Z1	X2	Y2	Z2	X3	Y3	Z3	X4	Y4	Z4	X5	Y5	Z5	X6	Y6	Z6	X7	Y7	Z7	X8	Y8	Z8	X9	Y9	Z9	X10	Y10	Z10	X11	Y11	Z11	X12	Y12	Z12	X13	Y13	Z13	X14	Y14	Z14	X15	Y15	Z15	X16	Y16	Z16	X17	Y17	Z17	X18	Y18	Z18	X19	Y19	Z19	X20	Y20	Z20	X21	Y21	Z21	X22	Y22	Z22	X23	Y23	Z23	X24	Y24	Z24	X25	Y25	Z25	X26	Y26	Z26	X27	Y27	Z27	
328	5.559322033898305	0.29102418631197097	0.41526407386223274	0.24885562522055504	0.29009473779062944	0.6910877600761789	0.5237248261646191	0.3262138588203906	1.0426847016438816	0.8076288429878807	0.26070528948853666	0.8880330247124127	0.9461157832682833	0.3414559969132375	0.9289119292186129	0.9224643823826679	0.33842779051447386	1.160144669446731	0.8327739889062629	0.11629757386508066	0.5365008897174615	0.17831561110846625	0.14176448053598806	0.7949363477559813	0.47308549493772983	0.14480949331182533	1.0488880163704761	0.7696619301567509	0.10546670755836808	0.9202412009226426	0.9154514570395366	0.07109024638094986	0.9942539981889368	0.8828306146340206	0.17997899309902923	1.1154508638098979	0.7932454845638219	0.1554656870982609	0.040141212251578136	-0.1438085083387069	0.1169818794568914	-0.22221560536440418	-0.243754915797071	0.09657893916657498	-0.11957223690499659	-0.14541709914267834	0.2930928155553251	0.06289473662068139	-0.07197009834186469	0.45167383826704277	0.2368220270585043	0.05124950578776782	0.4690049518302753	0.22851006965034248	0.2703649858568869	0.4506585956676345	0.25399620586279487	0.37977421171762865	0.47916307467894165	0.28419396257082963	0.37300829601779545	0.5129828805891185	0.31127937067708905	0.3614515060447421	0.05454175470282704	0.16459924165468512	-0.177868141438262	0.042772767346734866	0.37800893008913583	-0.14653647275696102	-0.04125715144478043	0.4092895249573627	-0.0476172180078623	-0.052256702957921855	0.37450255355101564	0.06321235742907245	-0.08010983100906592	0.4241071586738965	0.04541983464889623	-0.07668766409868456	0.4815795353932355	0.023855670477742043
329	5.576271186440678	0.289938005059548	0.4138253512543639	0.24933450181380923	0.29002092850131556	0.6906671944855197	0.5237237251920307	0.33403035732150244	1.054511396626143	0.8067014065637221	0.27263247465805507	0.912983419964631	0.9444826151319382	0.3415897063067878	0.9309130017140108	0.9265188987593783	0.3390364091741164	1.1556820859773	0.8287643251504963	0.11485713894584854	0.5383881051589127	0.18493215144643452	0.14164064607727547	0.7950480037876122	0.4730981425405395	0.14180450041089016	1.0534299514033	0.7770627528636929	0.10569141590719089	0.9218404268897834	0.9195165151657405	0.0712379013971853	0.9946718739947104	0.8830417073893331	0.18141889897249505	1.1208609935915261	0.7998256856870252	0.15564606271935225	0.040226879287995655	-0.14404463653091673	0.1209387925043954	-0.22252572105477847	-0.24375300288861648	0.10559215509283144	-0.11156035991918019	-0.1509213652403269	0.2876473784841853	0.04025991758257332	-0.06344653404376134	0.446690258220189	0.23872449411173188	0.05534192221389527	0.4518120400335341	0.22140715820873524	0.29271572900393816	0.41649711489860686	0.24076618051079657	0.392051789009604	0.4461129538167861	0.2588527137410751	0.38653083118400944	0.4937307491616051	0.32133465594674787	0.36567874536593664	0.05474543580048904	0.1630247918788794	-0.1802779847624899	0.03388120723396043	0.35792899752293844	-0.12317826180492993	-0.035672866137263365	0.3796012442570816	-0.013497658143858482	-0.03635002591308558	0.38002573071337925	0.07098430766049973	-0.06522346303648345	0.3805227211626071	0.07494246541602803	-0.07849020602779751	0.47853460165725226	0.04332468935166313
330	5.593220338983051	0.28987940801282774	0.4117750231175483	0.24623893931396673	0.2907864946660776	0.6879466562256111	0.5203279701354597	0.3320267023103583	1.0542674240480328	0.8068468626476238	0.2774449909169617	0.9219018995914433	0.9405396289439243	0.34849754755442636	0.9249392525891557	0.9274256025770842	0.3384345044273441	1.1598110727083513	0.8325956984211992	0.1059102656339139	0.5243613930816904	0.1859560319125433	0.14146125258057551	0.7935630538021643	0.46960573517756304	0.14173309279605087	1.0534274442438987	0.7768544944473201	0.11137302731488918	0.9358205378044685	0.9182342031380291	0.07125609633587948	0.9948052596995482	0.8830055196476077	0.17369209969116392	1.1015184157065971	0.7943128199600464	0.15527414405927503	0.037871158755452494	-0.1462318412802389	0.12122867856154051	-0.22551595908419075	-0.24902925839916432	0.10737580150764173	-0.12127029779072657	-0.14497451134875833	0.29397366513346684	0.03721750783073513	-0.061617339379322546	0.4485049656650901	0.2451316605698874	0.060647645639746194	0.4216272799589855	0.21717231911538554	0.2982317994281723	0.4059753529643151	0.24596775106060348	0.3941454659382402	0.4178602578016332	0.2572623899890867	0.39493345383331907	0.48298992871637264	0.32841582798156677	0.367151238925475	0.054768794476465876	0.16509312880595228	-0.17763636449936493	0.04119807230078994	0.3812783303005827	-0.12876414145434983	-0.02269366735514145	0.399798562488547	0.014235829929450104	-0.02910320520408259	0.3810629896791573	0.09578140009328182	-0.05858413811857839	0.3945045543439095	0.09824807075684963	-0.07583797185868607	0.46358502658421413	0.09662008987038716
331	5.610169491525424	0.28954102477541455	0.4139855393296003	0.24893057319234274	0.28898501160729234	0.687400870950565	0.5208146286344245	0.33198026899730265	1.054065514799096	0.8069163533005239	0.2728672102816239	0.9131702534439431	0.9449311781142482	0.3478306444857515	0.9238754317177256	0.9282376604120254	0.33862990806933885	1.1597729170039588	0.8328377418381873	0.11093065572034314	0.5114656741620117	0.19042601677167983	0.14136924434258893	0.7935169531228621	0.46961721169126786	0.14176922487864402	1.0535014740746662	0.7770485234578415	0.11133947220810027	0.9361556102105663	0.9181884525965269	0.07118649835583597	0.99491120577216	0.8831212509197721	0.17516320473521227	1.1068899771772571	0.8010386364754974	0.16057755833316847	0.04390608632708385	-0.15397353546551082	0.12627562079333104	-0.2185795336433592	-0.25433935933184876	0.11601653578337408	-0.11773637593732647	-0.15478245956853684	0.29961999451461463	0.029170169770865343	-0.052696669349746365	0.4486461986137908	0.24687237332372067	0.06468921382501672	0.40638490808637506	0.2109146811780056	0.3047468397500431	0.3936915157280009	0.2663907276017818	0.3943294317663215	0.4056258468815971	0.25123913136916776	0.4003298237252756	0.446594354330388	0.27848301635734796	0.3884799203959845	0.05474729934536894	0.16534882194241435	-0.17770117722415404	0.028352327040938444	0.39305600056020146	-0.1248597163990367	-0.024591293105580694	0.3921507642098868	0.04745259789930966	-0.019561563773992756	0.3436045928529501	0.14034016878808472	-0.04279406155516811	0.39414002334994847	0.1390082748064481	-0.05914335901132792	0.4270750144476465	0.13824288306236976
332	5.627118644067797	0.2907751749412854	0.41732411274894654	0.25127169906808305	0.29365954730941435	0.6887950800617506	0.5207367140415925	0.3334638557223767	1.0575240889549629	0.8059384798687516	0.26655005848939645	0.9001320587522812	0.9460278790607188	0.3421035244469046	0.9312926071499639	0.9268160290672641	0.3467572457647147	1.1771663202025895	0.830707646093183	0.10623529900427972	0.5115921647943262	0.19152726209317872	0.141003734712593	0.7916675892866631	0.46603782916429437	0.14167322177650285	1.0534403493056772	0.7770961614533394	0.10553796118658862	0.9217122830943134	0.9195415767965289	0.07104369205296668	0.9944910225524372	0.8831443506557292	0.1814777793149597	1.1213723758246448	0.800144801444194	0.16517676358962177	0.044936786292612156	-0.15485161704206057	0.13501350073681714	-0.21324010884825015	-0.2624758962184347	0.11770572341698005	-0.12742159082023377	-0.1487425983998952	0.3045207247774811	0.032707488413231005	-0.06258836377586034	0.4453798663667774	0.25214032229949646	0.07102343422671267	0.40599654464333473	0.2439690408939095	0.30382247584569055	0.344266454995251	0.2579805874213944	0.397094070823464	0.3772366868168692	0.2655263958015074	0.40656149697606064	0.4142209613490749	0.31706284691242714	0.40632973222591173	0.05059043455659935	0.16495111882975885	-0.17743089061025163	0.017813729664890452	0.3931211081548442	-0.10191825198001499	-0.017085136930765188	0.38889766934303094	0.06597935413882408	-0.0028651998889341404	0.35318939499768964	0.1725926257046818	-0.02197082202570713	0.36097249513326685	0.17887024973767965	-0.04769780906531572	0.425054141169537	0.1534653208364628
333	5.6440677966101696	0.2906076151147284	0.4298463319298503	0.2507785815038217	0.2924948050578721	0.6855088557179619	0.5179420085103033	0.333130736092668	1.0566675467296056	0.8060160198956783	0.2664872297825204	0.8998431176220762	0.9457948512235929	0.3423667179343422	0.9130755121559082	0.9287315098633092	0.3388089957925753	1.160559210484397	0.8327156504440814	0.10998863602492803	0.5268861980266318	0.1933366498055101	0.13543362493159683	0.7863141064909309	0.46269708218119626	0.14159112194279913	1.0533406127238596	0.7773087739110772	0.10535936573876784	0.9200218359430666	0.9155428766202173	0.07100814911655358	0.9942029520523457	0.882951937642314	0.18146464303106702	1.1217922530255946	0.8000815617698076	0.16516407244497813	0.04495176361653868	-0.1547823631599449	0.1389881606407773	-0.21283943481781975	-0.26306250751847177	0.118138281289949	-0.12676987229369233	-0.14922905653870974	0.3106604229266459	0.04305300978392921	-0.06491082706650901	0.44595942375741054	0.25818314899647216	0.08008884488942328	0.3945964354278336	0.2738860279576631	0.29262613885123584	0.32398615103408757	0.2789900386635185	0.4009639927082716	0.3431921634023239	0.2786879935002237	0.42509782969044746	0.40647189170598164	0.36346229400527086	0.4001954549164774	0.05045811504259318	0.1670565556080391	-0.1743924342420526	0.01828463011731227	0.4201641364769909	-0.07839231150980608	-0.00018592214878729966	0.3670488956755499	0.08546534241360575	0.004710772548105662	0.3488669668848707	0.18788386011753097	-0.016456832484799858	0.34080336403517203	0.19653836225679783	-0.036451029324351236	0.4289694871257458	0.1891805618084604
